<?xml version="1.0" standalone="no"?>
<!DOCTYPE svg PUBLIC "-//W3C//DTD SVG 20010904//EN"
 "http://www.w3.org/TR/2001/REC-SVG-20010904/DTD/svg10.dtd">
<svg version="1.0" xmlns="http://www.w3.org/2000/svg"
 width="140" height="140" viewBox="0 0 1280.000000 1032.000000"
 preserveAspectRatio="xMidYMid meet">
<metadata>
Created by potrace 1.15, written by Peter Selinger 2001-2017
</metadata>
<g transform="translate(0.000000,1032.000000) scale(0.100000,-0.100000)"
fill="#BFBFBF" stroke="none">
<path d="M6595 10290 c-10 -11 -24 -20 -30 -20 -7 0 -18 -7 -25 -15 -7 -8 -34
-27 -61 -41 -51 -28 -68 -52 -47 -66 10 -6 7 -13 -11 -28 -32 -27 -37 -25 -44
13 -4 17 -9 43 -13 56 -5 17 -4 22 4 17 17 -10 15 3 -3 20 -13 14 -17 14 -31
0 -8 -9 -12 -21 -9 -26 4 -6 2 -17 -4 -24 -9 -10 -8 -15 4 -20 15 -5 21 -51 8
-59 -19 -11 -53 13 -53 37 0 15 -11 33 -27 46 -29 22 -191 120 -199 120 -7 0
8 -54 19 -67 5 -7 6 -13 1 -13 -4 0 -3 -5 4 -12 7 -7 12 -20 12 -30 0 -10 5
-18 10 -18 6 0 10 -5 10 -10 0 -16 52 -70 81 -86 16 -8 29 -25 32 -44 5 -24
13 -32 39 -37 18 -4 36 -6 41 -5 4 1 7 -7 7 -18 0 -11 -4 -20 -10 -20 -5 0
-10 -9 -10 -19 0 -11 -8 -26 -19 -33 -33 -23 -61 -81 -61 -126 0 -80 54 -147
133 -166 22 -5 26 -10 18 -20 -7 -8 -7 -24 -2 -42 4 -16 9 -67 10 -113 1 -47
4 -88 6 -91 2 -4 -13 -24 -35 -45 -37 -36 -40 -37 -69 -25 -26 11 -35 10 -56
-4 -14 -10 -31 -29 -36 -44 -13 -32 -6 -258 14 -462 10 -96 10 -138 3 -147
-18 -19 -146 -86 -153 -79 -3 3 0 25 7 50 7 25 8 50 4 58 -5 7 -7 26 -5 41 4
39 -22 74 -60 82 -25 6 -36 3 -45 -10 -11 -15 -16 -16 -29 -5 -13 11 -15 8
-15 -21 1 -45 -18 -207 -28 -244 -9 -32 -36 -42 -187 -70 -38 -7 -58 -13 -42
-14 15 -1 70 8 123 20 53 11 98 18 100 16 3 -3 2 -16 -2 -30 -6 -26 -9 -26
-97 -30 l-92 -3 93 -2 c50 -1 92 -5 92 -8 0 -4 -18 -34 -41 -68 l-41 -61 4
-102 c3 -99 3 -101 -17 -91 -66 35 -72 44 -77 120 -8 129 -47 171 -167 181
-69 6 -111 19 -111 36 0 5 19 7 43 4 23 -2 69 0 102 6 56 9 54 9 -30 5 -67 -4
-95 -2 -108 8 -11 8 -31 52 -47 99 -44 136 -77 196 -133 240 -57 46 -72 47
-117 14 -19 -14 -48 -25 -64 -25 -30 0 -30 0 -8 -16 23 -16 30 -58 12 -69 -13
-8 -13 -48 0 -61 11 -11 16 -106 6 -122 -4 -6 0 -27 8 -47 12 -29 20 -35 45
-35 16 0 36 -3 45 -6 22 -8 20 -46 -3 -75 -38 -49 -45 -89 -27 -157 24 -95 22
-123 -15 -152 l-30 -26 12 -149 c12 -159 23 -189 63 -183 27 4 33 51 11 85
-20 29 -30 116 -21 167 10 53 41 78 96 76 66 -2 69 -2 63 19 -9 35 30 13 55
-30 21 -36 23 -52 25 -219 1 -124 -1 -183 -9 -188 -6 -4 -14 -17 -18 -29 l-7
-23 -245 0 c-237 0 -244 -1 -244 -20 0 -18 -7 -20 -75 -20 l-75 0 0 -50 0 -50
-49 0 -50 0 -3 -52 -3 -53 -2058 -3 c-1131 -1 -2057 -4 -2057 -7 0 -3 52 -71
115 -152 l115 -148 0 -267 0 -268 -50 0 -50 0 0 -50 0 -50 -210 0 -210 0 -100
-50 c-55 -28 -100 -52 -100 -55 0 -3 45 -27 100 -55 l100 -50 0 -53 0 -52 210
-158 210 -157 0 -315 0 -315 -105 0 -105 0 105 -157 105 -158 0 -2357 0 -2358
420 0 420 0 0 158 0 158 -55 54 -55 54 0 2251 0 2251 53 52 53 52 475 0 475 0
52 -53 52 -53 0 -2249 0 -2249 -55 -56 -56 -57 7 -156 7 -157 469 0 468 0 0
158 0 158 -55 54 -55 54 0 2251 0 2251 53 52 53 52 580 0 580 0 52 -53 52 -53
0 -2250 0 -2250 -55 -54 -55 -54 0 -158 0 -158 475 0 475 0 0 157 0 157 -55
53 -55 53 0 2253 0 2253 53 52 53 52 945 0 945 0 52 -53 52 -53 0 -2248 0
-2249 -55 -58 -55 -58 0 -155 0 -156 475 0 475 0 0 158 0 158 -55 54 -55 54 0
2251 0 2251 53 52 53 52 580 0 580 0 52 -53 52 -53 0 -2250 0 -2250 -55 -54
-55 -54 0 -158 0 -158 475 0 475 0 0 158 0 158 -55 54 -55 54 0 2251 0 2251
53 52 53 52 475 0 475 0 52 -53 52 -53 0 -2250 0 -2250 -55 -54 -55 -54 0
-158 0 -158 420 0 420 0 0 2358 0 2357 105 158 105 157 -105 0 -105 0 0 315 0
315 210 157 210 158 0 52 0 53 100 50 c55 28 100 52 100 55 0 3 -45 27 -100
55 l-100 50 -210 0 -210 0 0 49 0 50 -51 3 -50 3 1 265 1 265 113 150 114 150
-2057 5 -2056 5 -3 53 -3 52 -50 0 -49 0 0 50 0 50 -100 0 c-93 0 -100 1 -100
20 0 19 -7 20 -182 20 l-183 1 -22 34 c-21 33 -22 40 -13 146 7 86 13 117 28
133 26 29 62 94 62 111 0 15 38 55 52 55 5 0 4 -9 -2 -21 -14 -25 -6 -36 14
-20 11 9 22 9 50 -3 34 -14 36 -18 36 -58 -1 -24 -7 -54 -15 -68 -8 -14 -14
-37 -15 -51 0 -14 -9 -34 -20 -44 -31 -28 -24 -79 11 -83 31 -4 49 15 50 54 1
16 5 38 9 49 4 11 13 49 19 85 6 36 14 77 17 92 4 17 -2 47 -16 81 -22 52 -22
56 -7 121 16 69 13 95 -15 152 -33 64 -31 92 10 153 33 48 39 65 41 115 1 32
8 71 17 88 11 22 12 33 4 43 -13 16 -4 59 16 76 8 6 14 20 14 31 0 17 -2 18
-21 4 -18 -13 -23 -12 -39 2 -11 8 -17 20 -14 24 9 14 -66 -2 -107 -23 -19 -9
-40 -29 -47 -43 -6 -14 -16 -26 -22 -26 -22 0 -71 -130 -86 -228 -9 -60 -20
-101 -29 -108 -8 -6 -12 -13 -9 -16 3 -3 -41 -5 -98 -3 -88 2 -92 2 -28 -4
l75 -6 -59 -14 c-56 -14 -62 -14 -125 8 -36 13 -119 46 -184 75 -103 45 -117
53 -112 71 20 66 23 89 12 106 -8 13 -8 33 1 78 11 52 11 65 -3 91 -9 18 -13
40 -10 51 6 18 4 20 -14 14 -11 -3 -28 -2 -38 4 -12 6 -25 6 -37 -1 -9 -5 -20
-7 -24 -4 -3 4 -12 75 -19 159 -7 83 -18 173 -24 199 -20 86 -65 119 -116 83
-17 -12 -20 -22 -16 -54 4 -31 1 -43 -16 -60 -27 -27 -40 -27 -74 4 -33 32
-34 49 -2 109 31 58 31 70 3 96 -26 24 -74 26 -122 6 l-34 -14 -5 56 c-9 106
-8 144 5 160 10 12 10 16 1 19 -23 8 -14 21 22 33 43 14 91 68 104 117 17 62
-14 149 -60 174 -10 5 -18 15 -16 21 1 6 -7 16 -18 22 -27 15 -23 66 5 66 35
0 70 23 77 49 3 14 16 36 29 49 22 22 49 82 37 82 -3 0 0 7 7 15 7 8 10 15 6
15 -3 0 -1 12 5 28 10 25 19 72 14 72 -1 0 -10 -9 -20 -20z m-265 -364 c0 -2
-7 -6 -15 -10 -8 -3 -15 -1 -15 4 0 6 7 10 15 10 8 0 15 -2 15 -4z m115 -6 c3
-5 -1 -10 -9 -10 -9 0 -16 5 -16 10 0 6 4 10 9 10 6 0 13 -4 16 -10z m-85 -50
c0 -5 -9 -10 -20 -10 -24 0 -24 0 -5 -36 15 -29 19 -54 10 -54 -3 0 -21 7 -40
14 l-35 15 0 -44 0 -44 35 15 c19 7 37 14 40 14 10 0 4 -45 -9 -70 l-14 -24
-31 33 c-53 56 -39 150 28 186 31 17 41 18 41 5z m104 -41 c45 -53 28 -142
-34 -174 -34 -18 -40 -18 -40 -5 0 6 7 10 16 10 8 0 12 5 9 10 -4 6 -11 24
-15 41 -10 34 -14 33 58 13 20 -6 22 -3 22 35 0 46 0 46 -47 29 -41 -15 -48
-8 -33 36 14 44 30 45 64 5z m-104 -179 c0 -5 -5 -10 -11 -10 -5 0 -7 5 -4 10
3 6 8 10 11 10 2 0 4 -4 4 -10z m20 -460 c0 -36 -2 -40 -25 -40 -33 0 -42 23
-21 55 26 39 46 32 46 -15z m40 -1 c0 -10 -4 -19 -10 -19 -5 0 -10 12 -10 26
0 14 4 23 10 19 6 -3 10 -15 10 -26z m250 -481 c0 -2 9 -27 20 -55 21 -55 14
-67 -20 -33 -21 21 -29 90 -10 90 6 0 10 -1 10 -2z m-346 -63 c-4 -8 -8 -15
-10 -15 -2 0 -4 7 -4 15 0 8 4 15 10 15 5 0 7 -7 4 -15z m-156 -95 c-20 -17
-57 -53 -81 -81 l-45 -51 -4 41 -3 40 75 39 c93 48 105 51 58 12z m-982 -129
c-1 -23 -5 -41 -10 -41 -5 0 -9 16 -8 35 1 54 1 57 10 51 5 -3 8 -23 8 -45z
m1924 -69 c7 -11 161 -62 185 -62 19 0 19 0 -1 -14 -17 -12 -34 -56 -59 -151
-3 -13 -155 -109 -161 -102 -3 3 -8 70 -11 150 l-6 145 -26 5 c-14 3 -29 0
-33 -6 -4 -6 -14 6 -25 29 -10 21 -20 41 -23 44 -3 3 -6 13 -8 22 -2 13 12 10
80 -18 45 -20 85 -38 88 -42z m620 44 c0 -3 -4 -8 -10 -11 -5 -3 -10 -1 -10 4
0 6 5 11 10 11 6 0 10 -2 10 -4z m-503 -352 c-3 -20 -8 -38 -10 -41 -3 -2 -31
-3 -63 -1 l-59 3 60 37 c33 20 64 37 69 37 5 1 6 -15 3 -35z m-1492 -42 c-32
-2 -60 -1 -62 2 -3 3 -3 16 1 30 l6 26 56 -28 56 -27 -57 -3z m-37 -269 l-3
-248 -45 0 -45 0 -3 49 c-2 34 2 53 13 66 9 10 15 21 13 26 -1 5 3 19 10 31 9
16 10 44 4 105 -16 148 -3 218 39 218 19 0 19 -7 17 -247z m127 161 c9 -40 15
-81 11 -89 -3 -8 -1 -28 5 -43 16 -40 30 -190 23 -239 l-6 -43 -75 0 -74 0 2
243 c1 133 3 244 4 247 2 3 23 4 48 2 l44 -4 18 -74z m1367 -74 c1 -88 3 -199
3 -246 l0 -86 -60 -1 -60 0 -3 177 c-2 115 1 176 8 176 5 0 10 7 10 15 0 8 7
15 15 15 8 0 15 9 15 20 0 11 -6 20 -12 20 -12 0 -38 43 -38 62 0 4 27 8 60 8
l60 0 2 -160z m49 20 c1 -41 1 -84 0 -95 -4 -112 -1 -138 19 -152 12 -9 20
-25 20 -43 0 -34 37 -64 65 -54 15 6 16 15 11 60 -4 31 -2 55 4 59 14 8 13 71
-1 98 -15 26 18 207 39 214 19 8 22 2 29 -55 4 -36 2 -57 -8 -68 -12 -14 -29
-163 -32 -281 l-1 -43 -88 0 -88 0 0 253 c1 234 2 249 16 217 9 -20 15 -66 15
-110z m-1725 78 c-19 -27 -21 -19 -4 18 7 14 14 21 16 15 2 -6 -4 -21 -12 -33z
m486 -169 c8 -85 32 -169 49 -169 5 0 9 -22 9 -50 l0 -50 -44 0 c-39 0 -45 3
-53 28 -6 17 -6 65 -1 127 5 55 9 124 9 153 -1 40 2 53 11 50 8 -3 16 -35 20
-89z m145 -36 c6 -65 8 -143 4 -173 -6 -53 -7 -55 -38 -58 l-33 -3 0 49 c0 30
5 54 14 61 22 18 25 58 10 130 -20 95 -19 111 9 111 22 0 23 -5 34 -117z m847
100 c2 -10 8 -89 12 -176 l6 -157 -23 3 c-13 2 -24 10 -24 18 0 8 -4 19 -8 26
-8 13 -8 171 0 251 5 52 26 72 37 35z m-644 -4 l100 -12 0 -142 c0 -110 -3
-145 -14 -154 -9 -8 -52 -11 -127 -9 l-113 3 -2 45 c-2 25 2 81 8 125 6 44 12
97 12 118 0 43 -7 42 136 26z m464 -66 c10 -43 19 -103 20 -133 1 -55 2 -55
35 -58 28 -3 32 -6 27 -25 -3 -12 -6 -28 -6 -34 0 -9 -21 -13 -73 -13 -41 0
-76 2 -78 4 -7 7 16 290 26 324 3 6 10 12 17 12 8 0 20 -30 32 -77z m-156 56
c-21 -12 -24 -59 -6 -77 7 -7 21 -12 31 -12 19 0 19 -5 13 -107 -4 -59 -9
-111 -12 -114 -2 -4 -34 -6 -71 -5 -87 1 -93 11 -93 161 0 147 2 153 54 158
88 8 102 7 84 -4z m-1183 -225 c-5 -52 -11 -74 -22 -78 -14 -6 -15 4 -10 85 4
51 7 108 8 128 0 36 0 36 16 -14 11 -36 13 -69 8 -121z m105 -55 c0 -33 -3
-40 -17 -37 -22 4 -30 57 -11 69 23 15 28 10 28 -32z m-63 -31 c-3 -8 -6 -5
-6 6 -1 11 2 17 5 13 3 -3 4 -12 1 -19z"/>
<path d="M7005 8365 c22 -8 51 -13 65 -13 14 0 0 6 -30 13 -69 18 -88 17 -35
0z"/>
<path d="M5578 8363 c18 -2 45 -2 60 0 15 2 0 4 -33 4 -33 0 -45 -2 -27 -4z"/>
</g>
</svg>
